<?xml version="1.0" encoding="utf-8" standalone="no"?>
<!DOCTYPE svg PUBLIC "-//W3C//DTD SVG 1.1//EN"
  "http://www.w3.org/Graphics/SVG/1.1/DTD/svg11.dtd">
<!-- Created with matplotlib (http://matplotlib.org/) -->
<svg height="432pt" version="1.1" viewBox="0 0 576 432" width="576pt" xmlns="http://www.w3.org/2000/svg" xmlns:xlink="http://www.w3.org/1999/xlink">
 <defs>
  <style type="text/css">
*{stroke-linecap:butt;stroke-linejoin:round;}
  </style>
 </defs>
 <g id="figure_1">
  <g id="patch_1">
   <path d="
M0 432
L576 432
L576 0
L0 0
z
" style="fill:#ffffff;"/>
  </g>
  <g id="axes_1">
   <g id="patch_2">
    <path d="
M72 388.8
L518.4 388.8
L518.4 43.2
L72 43.2
z
" style="fill:#ffffff;"/>
   </g>
   <g id="PathCollection_1">
    <defs>
     <path d="
M0 2.23607
C0.593012 2.23607 1.16182 2.00046 1.58114 1.58114
C2.00046 1.16182 2.23607 0.593012 2.23607 0
C2.23607 -0.593012 2.00046 -1.16182 1.58114 -1.58114
C1.16182 -2.00046 0.593012 -2.23607 0 -2.23607
C-0.593012 -2.23607 -1.16182 -2.00046 -1.58114 -1.58114
C-2.00046 -1.16182 -2.23607 -0.593012 -2.23607 0
C-2.23607 0.593012 -2.00046 1.16182 -1.58114 1.58114
C-1.16182 2.00046 -0.593012 2.23607 0 2.23607
z
" id="C0_0_919e3f95db"/>
    </defs>
    <g clip-path="url(#p7ff5b81e1d)">
     <use style="fill:#008000;stroke:#000000;" x="479.520493771" xlink:href="#C0_0_919e3f95db" y="207.394422311"/>
    </g>
    <g clip-path="url(#p7ff5b81e1d)">
     <use style="fill:#008000;stroke:#000000;" x="513.961001257" xlink:href="#C0_0_919e3f95db" y="314.964143426"/>
    </g>
    <g clip-path="url(#p7ff5b81e1d)">
     <use style="fill:#008000;stroke:#000000;" x="460.3868785" xlink:href="#C0_0_919e3f95db" y="383.80876494"/>
    </g>
    <g clip-path="url(#p7ff5b81e1d)">
     <use style="fill:#008000;stroke:#000000;" x="443.804411933" xlink:href="#C0_0_919e3f95db" y="327.87250996"/>
    </g>
    <g clip-path="url(#p7ff5b81e1d)">
     <use style="fill:#008000;stroke:#000000;" x="368.545525203" xlink:href="#C0_0_919e3f95db" y="366.597609562"/>
    </g>
    <g clip-path="url(#p7ff5b81e1d)">
     <use style="fill:#008000;stroke:#000000;" x="380.025694365" xlink:href="#C0_0_919e3f95db" y="314.964143426"/>
    </g>
    <g clip-path="url(#p7ff5b81e1d)">
     <use style="fill:#008000;stroke:#000000;" x="406.812755744" xlink:href="#C0_0_919e3f95db" y="294.884462151"/>
    </g>
    <g clip-path="url(#p7ff5b81e1d)">
     <use style="fill:#008000;stroke:#000000;" x="388.954714825" xlink:href="#C0_0_919e3f95db" y="270.501992032"/>
    </g>
    <g clip-path="url(#p7ff5b81e1d)">
     <use style="fill:#008000;stroke:#000000;" x="381.301268716" xlink:href="#C0_0_919e3f95db" y="218.868525896"/>
    </g>
    <g clip-path="url(#p7ff5b81e1d)">
     <use style="fill:#008000;stroke:#000000;" x="318.7981255" xlink:href="#C0_0_919e3f95db" y="218.868525896"/>
    </g>
    <g clip-path="url(#p7ff5b81e1d)">
     <use style="fill:#008000;stroke:#000000;" x="311.144679392" xlink:href="#C0_0_919e3f95db" y="188.749003984"/>
    </g>
    <g clip-path="url(#p7ff5b81e1d)">
     <use style="fill:#008000;stroke:#000000;" x="294.562212824" xlink:href="#C0_0_919e3f95db" y="195.920318725"/>
    </g>
    <g clip-path="url(#p7ff5b81e1d)">
     <use style="fill:#008000;stroke:#000000;" x="285.633192365" xlink:href="#C0_0_919e3f95db" y="190.183266932"/>
    </g>
    <g clip-path="url(#p7ff5b81e1d)">
     <use style="fill:#008000;stroke:#000000;" x="285.633192365" xlink:href="#C0_0_919e3f95db" y="197.354581673"/>
    </g>
    <g clip-path="url(#p7ff5b81e1d)">
     <use style="fill:#008000;stroke:#000000;" x="283.082043662" xlink:href="#C0_0_919e3f95db" y="205.960159363"/>
    </g>
    <g clip-path="url(#p7ff5b81e1d)">
     <use style="fill:#008000;stroke:#000000;" x="281.806469311" xlink:href="#C0_0_919e3f95db" y="210.262948207"/>
    </g>
    <g clip-path="url(#p7ff5b81e1d)">
     <use style="fill:#008000;stroke:#000000;" x="272.877448851" xlink:href="#C0_0_919e3f95db" y="200.22310757"/>
    </g>
    <g clip-path="url(#p7ff5b81e1d)">
     <use style="fill:#008000;stroke:#000000;" x="266.499577095" xlink:href="#C0_0_919e3f95db" y="210.262948207"/>
    </g>
    <g clip-path="url(#p7ff5b81e1d)">
     <use style="fill:#008000;stroke:#000000;" x="263.948428392" xlink:href="#C0_0_919e3f95db" y="198.788844622"/>
    </g>
    <g clip-path="url(#p7ff5b81e1d)">
     <use style="fill:#008000;stroke:#000000;" x="253.743833581" xlink:href="#C0_0_919e3f95db" y="203.091633466"/>
    </g>
    <g clip-path="url(#p7ff5b81e1d)">
     <use style="fill:#008000;stroke:#000000;" x="244.814813121" xlink:href="#C0_0_919e3f95db" y="210.262948207"/>
    </g>
    <g clip-path="url(#p7ff5b81e1d)">
     <use style="fill:#008000;stroke:#000000;" x="244.814813121" xlink:href="#C0_0_919e3f95db" y="214.565737052"/>
    </g>
    <g clip-path="url(#p7ff5b81e1d)">
     <use style="fill:#008000;stroke:#000000;" x="248.641536176" xlink:href="#C0_0_919e3f95db" y="218.868525896"/>
    </g>
    <g clip-path="url(#p7ff5b81e1d)">
     <use style="fill:#008000;stroke:#000000;" x="248.641536176" xlink:href="#C0_0_919e3f95db" y="241.816733068"/>
    </g>
    <g clip-path="url(#p7ff5b81e1d)">
     <use style="fill:#008000;stroke:#000000;" x="281.806469311" xlink:href="#C0_0_919e3f95db" y="246.119521912"/>
    </g>
    <g clip-path="url(#p7ff5b81e1d)">
     <use style="fill:#008000;stroke:#000000;" x="255.019407932" xlink:href="#C0_0_919e3f95db" y="279.107569721"/>
    </g>
    <g clip-path="url(#p7ff5b81e1d)">
     <use style="fill:#008000;stroke:#000000;" x="238.436941365" xlink:href="#C0_0_919e3f95db" y="333.609561753"/>
    </g>
    <g clip-path="url(#p7ff5b81e1d)">
     <use style="fill:#008000;stroke:#000000;" x="221.854474797" xlink:href="#C0_0_919e3f95db" y="281.976095618"/>
    </g>
    <g clip-path="url(#p7ff5b81e1d)">
     <use style="fill:#008000;stroke:#000000;" x="212.925454338" xlink:href="#C0_0_919e3f95db" y="280.541832669"/>
    </g>
    <g clip-path="url(#p7ff5b81e1d)">
     <use style="fill:#008000;stroke:#000000;" x="192.516264716" xlink:href="#C0_0_919e3f95db" y="266.199203187"/>
    </g>
    <g clip-path="url(#p7ff5b81e1d)">
     <use style="fill:#008000;stroke:#000000;" x="174.658223797" xlink:href="#C0_0_919e3f95db" y="313.529880478"/>
    </g>
    <g clip-path="url(#p7ff5b81e1d)">
     <use style="fill:#008000;stroke:#000000;" x="76.4389987427" xlink:href="#C0_0_919e3f95db" y="332.175298805"/>
    </g>
    <g clip-path="url(#p7ff5b81e1d)">
     <use style="fill:#008000;stroke:#000000;" x="76.4389987427" xlink:href="#C0_0_919e3f95db" y="319.266932271"/>
    </g>
    <g clip-path="url(#p7ff5b81e1d)">
     <use style="fill:#008000;stroke:#000000;" x="94.2970396617" xlink:href="#C0_0_919e3f95db" y="310.661354582"/>
    </g>
    <g clip-path="url(#p7ff5b81e1d)">
     <use style="fill:#008000;stroke:#000000;" x="146.595588067" xlink:href="#C0_0_919e3f95db" y="251.856573705"/>
    </g>
    <g clip-path="url(#p7ff5b81e1d)">
     <use style="fill:#008000;stroke:#000000;" x="107.052783175" xlink:href="#C0_0_919e3f95db" y="194.486055777"/>
    </g>
    <g clip-path="url(#p7ff5b81e1d)">
     <use style="fill:#008000;stroke:#000000;" x="158.075757229" xlink:href="#C0_0_919e3f95db" y="170.103585657"/>
    </g>
    <g clip-path="url(#p7ff5b81e1d)">
     <use style="fill:#008000;stroke:#000000;" x="175.933798148" xlink:href="#C0_0_919e3f95db" y="203.091633466"/>
    </g>
    <g clip-path="url(#p7ff5b81e1d)">
     <use style="fill:#008000;stroke:#000000;" x="177.2093725" xlink:href="#C0_0_919e3f95db" y="226.039840637"/>
    </g>
    <g clip-path="url(#p7ff5b81e1d)">
     <use style="fill:#008000;stroke:#000000;" x="202.720859527" xlink:href="#C0_0_919e3f95db" y="217.434262948"/>
    </g>
    <g clip-path="url(#p7ff5b81e1d)">
     <use style="fill:#008000;stroke:#000000;" x="214.201028689" xlink:href="#C0_0_919e3f95db" y="220.302788845"/>
    </g>
    <g clip-path="url(#p7ff5b81e1d)">
     <use style="fill:#008000;stroke:#000000;" x="224.4056235" xlink:href="#C0_0_919e3f95db" y="205.960159363"/>
    </g>
    <g clip-path="url(#p7ff5b81e1d)">
     <use style="fill:#008000;stroke:#000000;" x="216.752177392" xlink:href="#C0_0_919e3f95db" y="194.486055777"/>
    </g>
    <g clip-path="url(#p7ff5b81e1d)">
     <use style="fill:#008000;stroke:#000000;" x="211.649879986" xlink:href="#C0_0_919e3f95db" y="151.458167331"/>
    </g>
    <g clip-path="url(#p7ff5b81e1d)">
     <use style="fill:#008000;stroke:#000000;" x="200.169710824" xlink:href="#C0_0_919e3f95db" y="134.247011952"/>
    </g>
    <g clip-path="url(#p7ff5b81e1d)">
     <use style="fill:#008000;stroke:#000000;" x="191.240690365" xlink:href="#C0_0_919e3f95db" y="109.864541833"/>
    </g>
    <g clip-path="url(#p7ff5b81e1d)">
     <use style="fill:#008000;stroke:#000000;" x="203.996433878" xlink:href="#C0_0_919e3f95db" y="98.390438247"/>
    </g>
    <g clip-path="url(#p7ff5b81e1d)">
     <use style="fill:#008000;stroke:#000000;" x="218.027751743" xlink:href="#C0_0_919e3f95db" y="48.1912350598"/>
    </g>
    <g clip-path="url(#p7ff5b81e1d)">
     <use style="fill:#008000;stroke:#000000;" x="235.885792662" xlink:href="#C0_0_919e3f95db" y="61.0996015936"/>
    </g>
    <g clip-path="url(#p7ff5b81e1d)">
     <use style="fill:#008000;stroke:#000000;" x="293.286638473" xlink:href="#C0_0_919e3f95db" y="121.338645418"/>
    </g>
    <g clip-path="url(#p7ff5b81e1d)">
     <use style="fill:#008000;stroke:#000000;" x="363.443227797" xlink:href="#C0_0_919e3f95db" y="52.4940239044"/>
    </g>
    <g clip-path="url(#p7ff5b81e1d)">
     <use style="fill:#008000;stroke:#000000;" x="411.915053149" xlink:href="#C0_0_919e3f95db" y="177.274900398"/>
    </g>
    <g clip-path="url(#p7ff5b81e1d)">
     <use style="fill:#008000;stroke:#000000;" x="479.520493771" xlink:href="#C0_0_919e3f95db" y="207.394422311"/>
    </g>
   </g>
   <g id="line2d_1">
    <path clip-path="url(#p7ff5b81e1d)" d="
M479.52 207.394
L513.961 314.964
L460.387 383.809
L443.804 327.873
L368.546 366.598
L380.026 314.964
L406.813 294.884
L388.955 270.502
L381.301 218.869
L318.798 218.869
L311.145 188.749
L294.562 195.92
L285.633 190.183
L285.633 197.355
L283.082 205.96
L281.806 210.263
L272.877 200.223
L266.5 210.263
L263.948 198.789
L253.744 203.092
L244.815 210.263
L244.815 214.566
L248.642 218.869
L248.642 241.817
L281.806 246.12
L255.019 279.108
L238.437 333.61
L221.854 281.976
L212.925 280.542
L192.516 266.199
L174.658 313.53
L76.439 332.175
L76.439 319.267
L94.297 310.661
L146.596 251.857
L107.053 194.486
L158.076 170.104
L175.934 203.092
L177.209 226.04
L202.721 217.434
L214.201 220.303
L224.406 205.96
L216.752 194.486
L211.65 151.458
L200.17 134.247
L191.241 109.865
L203.996 98.3904
L218.028 48.1912
L235.886 61.0996
L293.287 121.339
L363.443 52.494
L411.915 177.275
L479.52 207.394" style="fill:none;stroke:#0000ff;stroke-linecap:square;"/>
   </g>
   <g id="line2d_2">
    <path clip-path="url(#p7ff5b81e1d)" d="
M479.52 207.394
L479.52 207.394" style="fill:none;stroke:#0000ff;stroke-linecap:square;"/>
   </g>
   <g id="matplotlib.axis_1">
    <g id="xtick_1">
     <g id="line2d_3">
      <defs>
       <path d="
M0 0
L0 -4" id="mc7db9fdffb" style="stroke:#000000;stroke-width:0.5;"/>
      </defs>
      <g>
       <use style="stroke:#000000;stroke-width:0.5;" x="121.08410104" xlink:href="#mc7db9fdffb" y="388.8"/>
      </g>
     </g>
     <g id="line2d_4">
      <defs>
       <path d="
M0 0
L0 4" id="m5a7d422ac3" style="stroke:#000000;stroke-width:0.5;"/>
      </defs>
      <g>
       <use style="stroke:#000000;stroke-width:0.5;" x="121.08410104" xlink:href="#m5a7d422ac3" y="43.2"/>
      </g>
     </g>
     <g id="text_1">
      <!-- $200$ -->
      <defs>
       <path d="
M42 31.6406
C42 37.75 41.9062 48.125 37.7031 56.1094
C34 63.1094 28.0938 65.5938 22.9062 65.5938
C18.0938 65.5938 12 63.4062 8.20312 56.2031
C4.20312 48.7188 3.79688 39.4375 3.79688 31.6406
C3.79688 25.9531 3.90625 17.2812 7 9.67188
C11.2969 -0.609375 19 -2 22.9062 -2
C27.5 -2 34.5 -0.109375 38.5938 9.375
C41.5938 16.2812 42 24.3594 42 31.6406
M22.9062 -0.40625
C16.5 -0.40625 12.7031 5.07812 11.2969 12.6875
C10.2031 18.5625 10.2031 27.1562 10.2031 32.75
C10.2031 40.4375 10.2031 46.8281 11.5 52.9219
C13.4062 61.3906 19 64 22.9062 64
C27 64 32.2969 61.2969 34.2031 53.125
C35.5 47.4375 35.5938 40.7344 35.5938 32.75
C35.5938 26.25 35.5938 18.2656 34.4062 12.375
C32.2969 1.48438 26.4062 -0.40625 22.9062 -0.40625" id="CMR17-48"/>
       <path d="
M41.7031 15.4531
L39.9062 15.4531
C38.9062 8.375 38.0938 7.17188 37.7031 6.5625
C37.2031 5.76562 30 5.76562 28.5938 5.76562
L9.40625 5.76562
C13 9.67188 20 16.75 28.5 24.9531
C34.5938 30.7344 41.7031 37.5312 41.7031 47.4219
C41.7031 59.2188 32.2969 66 21.7969 66
C10.7969 66 4.09375 56.3125 4.09375 47.3438
C4.09375 43.4375 7 42.9375 8.20312 42.9375
C9.20312 42.9375 12.2031 43.5469 12.2031 47.0312
C12.2031 50.1094 9.59375 51 8.20312 51
C7.59375 51 7 50.9062 6.59375 50.7031
C8.5 59.2188 14.2969 63.4062 20.4062 63.4062
C29.0938 63.4062 34.7969 56.5156 34.7969 47.4219
C34.7969 38.7344 29.7031 31.25 24 24.75
L4.09375 2.28125
L4.09375 0
L39.2969 0
z
" id="CMR17-50"/>
      </defs>
      <g transform="translate(112.304615663 401.317984317)scale(0.12 -0.12)">
       <use transform="scale(0.9962640099626402)" xlink:href="#CMR17-50"/>
       <use transform="translate(45.69047711706103 0.0)scale(0.9962640099626402)" xlink:href="#CMR17-48"/>
       <use transform="translate(91.38095423412206 0.0)scale(0.9962640099626402)" xlink:href="#CMR17-48"/>
      </g>
     </g>
    </g>
    <g id="xtick_2">
     <g id="line2d_5">
      <g>
       <use style="stroke:#000000;stroke-width:0.5;" x="172.107075094" xlink:href="#mc7db9fdffb" y="388.8"/>
      </g>
     </g>
     <g id="line2d_6">
      <g>
       <use style="stroke:#000000;stroke-width:0.5;" x="172.107075094" xlink:href="#m5a7d422ac3" y="43.2"/>
      </g>
     </g>
     <g id="text_2">
      <!-- $400$ -->
      <defs>
       <path d="
M33.5938 64.3281
C33.5938 66.4062 33.5 66.5 31.7031 66.5
L2 19.5938
L2 17
L27.7969 17
L27.7969 7.14062
C27.7969 3.5 27.5938 2.5 20.5938 2.5
L18.7031 2.5
L18.7031 0
C21.9062 0 27.2969 0 30.7031 0
C34.0938 0 39.5 0 42.7031 0
L42.7031 2.5
L40.7969 2.5
C33.7969 2.5 33.5938 3.5 33.5938 7.14062
L33.5938 17
L43.7969 17
L43.7969 19.5938
L33.5938 19.5938
z

M28.0938 57.7656
L28.0938 19.5938
L4 19.5938
z
" id="CMR17-52"/>
      </defs>
      <g transform="translate(163.327589717 401.317984317)scale(0.12 -0.12)">
       <use transform="scale(0.9962640099626402)" xlink:href="#CMR17-52"/>
       <use transform="translate(45.69047711706103 0.0)scale(0.9962640099626402)" xlink:href="#CMR17-48"/>
       <use transform="translate(91.38095423412206 0.0)scale(0.9962640099626402)" xlink:href="#CMR17-48"/>
      </g>
     </g>
    </g>
    <g id="xtick_3">
     <g id="line2d_7">
      <g>
       <use style="stroke:#000000;stroke-width:0.5;" x="223.130049148" xlink:href="#mc7db9fdffb" y="388.8"/>
      </g>
     </g>
     <g id="line2d_8">
      <g>
       <use style="stroke:#000000;stroke-width:0.5;" x="223.130049148" xlink:href="#m5a7d422ac3" y="43.2"/>
      </g>
     </g>
     <g id="text_3">
      <!-- $600$ -->
      <defs>
       <path d="
M10.5938 34
C10.5938 57.6562 21.7969 63 28.2969 63
C30.4062 63 35.5 62.6406 37.5 59
C35.9062 59 32.9062 59 32.9062 55.5156
C32.9062 52.8281 35.0938 51.9219 36.5 51.9219
C37.4062 51.9219 40.0938 52.3125 40.0938 55.625
C40.0938 61.7812 35.0938 65.2969 28.2031 65.2969
C16.2969 65.2969 3.79688 52.9688 3.79688 31
C3.79688 3.95312 15.0938 -2 23.0938 -2
C32.7969 -2 42 6.67188 42 20.0469
C42 32.5156 33.9062 41.5938 23.7031 41.5938
C17.5938 41.5938 13.0938 37.6094 10.5938 30.625
z

M23.0938 0.390625
C10.7969 0.390625 10.7969 18.75 10.7969 22.4375
C10.7969 29.625 14.2031 40 23.5 40
C25.2031 40 30.0938 40 33.4062 33.125
C35.2031 29.2188 35.2031 25.1406 35.2031 20.1406
C35.2031 14.75 35.2031 10.7812 33.0938 6.78125
C30.9062 2.67188 27.7031 0.390625 23.0938 0.390625" id="CMR17-54"/>
      </defs>
      <g transform="translate(214.350563771 401.317984317)scale(0.12 -0.12)">
       <use transform="scale(0.9962640099626402)" xlink:href="#CMR17-54"/>
       <use transform="translate(45.69047711706103 0.0)scale(0.9962640099626402)" xlink:href="#CMR17-48"/>
       <use transform="translate(91.38095423412206 0.0)scale(0.9962640099626402)" xlink:href="#CMR17-48"/>
      </g>
     </g>
    </g>
    <g id="xtick_4">
     <g id="line2d_9">
      <g>
       <use style="stroke:#000000;stroke-width:0.5;" x="274.153023203" xlink:href="#mc7db9fdffb" y="388.8"/>
      </g>
     </g>
     <g id="line2d_10">
      <g>
       <use style="stroke:#000000;stroke-width:0.5;" x="274.153023203" xlink:href="#m5a7d422ac3" y="43.2"/>
      </g>
     </g>
     <g id="text_4">
      <!-- $800$ -->
      <defs>
       <path d="
M27.2031 35.375
C33.5 38.5625 39.9062 43.3281 39.9062 50.9844
C39.9062 60.0312 31.0938 65.2969 23 65.2969
C13.9062 65.2969 5.90625 58.7344 5.90625 49.6875
C5.90625 47.2031 6.5 42.9219 10.4062 39.1406
C11.4062 38.1562 15.5938 35.1719 18.2969 33.2812
C13.7969 30.9844 3.29688 25.5312 3.29688 14.5938
C3.29688 4.35938 13.0938 -2 22.7969 -2
C33.5 -2 42.5 5.65625 42.5 15.7969
C42.5 24.8438 36.4062 29.0312 32.4062 31.7031
z

M14.0938 44.125
C13.2969 44.625 9.29688 47.7031 9.29688 52.375
C9.29688 58.4375 15.5938 63 22.7969 63
C30.7031 63 36.5 57.4531 36.5 50.9844
C36.5 41.7344 26.0938 36.4688 25.5938 36.4688
C25.5 36.4688 25.4062 36.4688 24.5938 37.0781
z

M32.5 23.7344
C34 22.6406 38.7969 19.375 38.7969 13.2969
C38.7969 5.95312 31.4062 0.390625 23 0.390625
C13.9062 0.390625 7 6.84375 7 14.6875
C7 22.5469 13.0938 29.0938 20 32.1875
z
" id="CMR17-56"/>
      </defs>
      <g transform="translate(265.373537826 401.317984317)scale(0.12 -0.12)">
       <use transform="scale(0.9962640099626402)" xlink:href="#CMR17-56"/>
       <use transform="translate(45.69047711706103 0.0)scale(0.9962640099626402)" xlink:href="#CMR17-48"/>
       <use transform="translate(91.38095423412206 0.0)scale(0.9962640099626402)" xlink:href="#CMR17-48"/>
      </g>
     </g>
    </g>
    <g id="xtick_5">
     <g id="line2d_11">
      <g>
       <use style="stroke:#000000;stroke-width:0.5;" x="325.175997257" xlink:href="#mc7db9fdffb" y="388.8"/>
      </g>
     </g>
     <g id="line2d_12">
      <g>
       <use style="stroke:#000000;stroke-width:0.5;" x="325.175997257" xlink:href="#m5a7d422ac3" y="43.2"/>
      </g>
     </g>
     <g id="text_5">
      <!-- $1000$ -->
      <defs>
       <path d="
M26.5938 63.3125
C26.5938 65.4062 26.5 65.5 25.0938 65.5
C21.2031 61.1875 15.2969 59.7969 9.70312 59.7969
C9.40625 59.7969 8.90625 59.7969 8.79688 59.6094
C8.70312 59.3906 8.70312 59.1719 8.70312 57
C11.7969 57 17 57.5938 21 59.9844
L21 7.20312
C21 3.6875 20.7969 2.5 12.2031 2.5
L9.20312 2.5
L9.20312 0
C14 0 19 0 23.7969 0
C28.5938 0 33.5938 0 38.4062 0
L38.4062 2.5
L35.4062 2.5
C26.7969 2.5 26.5938 3.59375 26.5938 7.15625
z
" id="CMR17-49"/>
      </defs>
      <g transform="translate(313.470016754 401.317984317)scale(0.12 -0.12)">
       <use transform="scale(0.9962640099626402)" xlink:href="#CMR17-49"/>
       <use transform="translate(45.69047711706103 0.0)scale(0.9962640099626402)" xlink:href="#CMR17-48"/>
       <use transform="translate(91.38095423412206 0.0)scale(0.9962640099626402)" xlink:href="#CMR17-48"/>
       <use transform="translate(137.07143135118307 0.0)scale(0.9962640099626402)" xlink:href="#CMR17-48"/>
      </g>
     </g>
    </g>
    <g id="xtick_6">
     <g id="line2d_13">
      <g>
       <use style="stroke:#000000;stroke-width:0.5;" x="376.198971311" xlink:href="#mc7db9fdffb" y="388.8"/>
      </g>
     </g>
     <g id="line2d_14">
      <g>
       <use style="stroke:#000000;stroke-width:0.5;" x="376.198971311" xlink:href="#m5a7d422ac3" y="43.2"/>
      </g>
     </g>
     <g id="text_6">
      <!-- $1200$ -->
      <g transform="translate(364.492990808 401.317984317)scale(0.12 -0.12)">
       <use transform="scale(0.9962640099626402)" xlink:href="#CMR17-49"/>
       <use transform="translate(45.69047711706103 0.0)scale(0.9962640099626402)" xlink:href="#CMR17-50"/>
       <use transform="translate(91.38095423412206 0.0)scale(0.9962640099626402)" xlink:href="#CMR17-48"/>
       <use transform="translate(137.07143135118307 0.0)scale(0.9962640099626402)" xlink:href="#CMR17-48"/>
      </g>
     </g>
    </g>
    <g id="xtick_7">
     <g id="line2d_15">
      <g>
       <use style="stroke:#000000;stroke-width:0.5;" x="427.221945365" xlink:href="#mc7db9fdffb" y="388.8"/>
      </g>
     </g>
     <g id="line2d_16">
      <g>
       <use style="stroke:#000000;stroke-width:0.5;" x="427.221945365" xlink:href="#m5a7d422ac3" y="43.2"/>
      </g>
     </g>
     <g id="text_7">
      <!-- $1400$ -->
      <g transform="translate(415.515964862 401.317984317)scale(0.12 -0.12)">
       <use transform="scale(0.9962640099626402)" xlink:href="#CMR17-49"/>
       <use transform="translate(45.69047711706103 0.0)scale(0.9962640099626402)" xlink:href="#CMR17-52"/>
       <use transform="translate(91.38095423412206 0.0)scale(0.9962640099626402)" xlink:href="#CMR17-48"/>
       <use transform="translate(137.07143135118307 0.0)scale(0.9962640099626402)" xlink:href="#CMR17-48"/>
      </g>
     </g>
    </g>
    <g id="xtick_8">
     <g id="line2d_17">
      <g>
       <use style="stroke:#000000;stroke-width:0.5;" x="478.244919419" xlink:href="#mc7db9fdffb" y="388.8"/>
      </g>
     </g>
     <g id="line2d_18">
      <g>
       <use style="stroke:#000000;stroke-width:0.5;" x="478.244919419" xlink:href="#m5a7d422ac3" y="43.2"/>
      </g>
     </g>
     <g id="text_8">
      <!-- $1600$ -->
      <g transform="translate(466.538938917 401.317984317)scale(0.12 -0.12)">
       <use transform="scale(0.9962640099626402)" xlink:href="#CMR17-49"/>
       <use transform="translate(45.69047711706103 0.0)scale(0.9962640099626402)" xlink:href="#CMR17-54"/>
       <use transform="translate(91.38095423412206 0.0)scale(0.9962640099626402)" xlink:href="#CMR17-48"/>
       <use transform="translate(137.07143135118307 0.0)scale(0.9962640099626402)" xlink:href="#CMR17-48"/>
      </g>
     </g>
    </g>
    <g id="text_9">
     <!-- $x$ -->
     <defs>
      <path d="
M47.4062 40.7188
C44.2031 40.1094 43 37.7188 43 35.8281
C43 33.4219 44.9062 32.625 46.2969 32.625
C49.2969 32.625 51.4062 35.2188 51.4062 37.9219
C51.4062 42.1094 46.5938 44 42.4062 44
C36.2969 44 32.9062 38.0156 32 36.125
C29.7031 44 23.5 44 21.7031 44
C11.5 44 6.09375 30.9375 6.09375 28.7344
C6.09375 28.3438 6.5 27.8438 7.20312 27.8438
C8 27.8438 8.20312 28.4375 8.40625 28.8438
C11.7969 39.9219 18.5 42.0156 21.4062 42.0156
C25.9062 42.0156 26.7969 37.8125 26.7969 35.4219
C26.7969 33.2344 26.2031 30.9375 25 26.1406
L21.5938 12.4688
C20.0938 6.48438 17.2031 1 11.9062 1
C11.4062 1 8.90625 1 6.79688 2.29688
C10.4062 3 11.2031 5.98438 11.2031 7.1875
C11.2031 9.1875 9.70312 10.375 7.79688 10.375
C5.40625 10.375 2.79688 8.28125 2.79688 5.09375
C2.79688 0.890625 7.5 -1 11.7969 -1
C16.5938 -1 20 2.79688 22.0938 6.89062
C23.7031 1 28.7031 -1 32.4062 -1
C42.5938 -1 48 12.0781 48 14.2656
C48 14.7656 47.5938 15.1719 47 15.1719
C46.0938 15.1719 46 14.6719 45.7031 13.875
C43 5.09375 37.2031 1 32.7031 1
C29.2031 1 27.2969 3.59375 27.2969 7.6875
C27.2969 9.875 27.7031 11.4688 29.2969 18.0625
L32.7969 31.625
C34.2969 37.625 37.7031 42.0156 42.2969 42.0156
C42.5 42.0156 45.2969 42.0156 47.4062 40.7188" id="CMMI12-120"/>
     </defs>
     <g transform="translate(290.210934642 421.641335349)scale(0.18 -0.18)">
      <use transform="scale(0.9962640099626402)" xlink:href="#CMMI12-120"/>
     </g>
    </g>
   </g>
   <g id="matplotlib.axis_2">
    <g id="ytick_1">
     <g id="line2d_19">
      <defs>
       <path d="
M0 0
L4 0" id="md7965d1ba0" style="stroke:#000000;stroke-width:0.5;"/>
      </defs>
      <g>
       <use style="stroke:#000000;stroke-width:0.5;" x="72.0" xlink:href="#md7965d1ba0" y="385.243027888"/>
      </g>
     </g>
     <g id="line2d_20">
      <defs>
       <path d="
M0 0
L-4 0" id="md9a1c1a7cd" style="stroke:#000000;stroke-width:0.5;"/>
      </defs>
      <g>
       <use style="stroke:#000000;stroke-width:0.5;" x="518.4" xlink:href="#md9a1c1a7cd" y="385.243027888"/>
      </g>
     </g>
     <g id="text_10">
      <!-- $0$ -->
      <g transform="translate(62.1470097486 388.228832768)scale(0.12 -0.12)">
       <use transform="scale(0.9962640099626402)" xlink:href="#CMR17-48"/>
      </g>
     </g>
    </g>
    <g id="ytick_2">
     <g id="line2d_21">
      <g>
       <use style="stroke:#000000;stroke-width:0.5;" x="72.0" xlink:href="#md7965d1ba0" y="327.87250996"/>
      </g>
     </g>
     <g id="line2d_22">
      <g>
       <use style="stroke:#000000;stroke-width:0.5;" x="518.4" xlink:href="#md9a1c1a7cd" y="327.87250996"/>
      </g>
     </g>
     <g id="text_11">
      <!-- $200$ -->
      <g transform="translate(50.4410292458 330.85831484)scale(0.12 -0.12)">
       <use transform="scale(0.9962640099626402)" xlink:href="#CMR17-50"/>
       <use transform="translate(45.69047711706103 0.0)scale(0.9962640099626402)" xlink:href="#CMR17-48"/>
       <use transform="translate(91.38095423412206 0.0)scale(0.9962640099626402)" xlink:href="#CMR17-48"/>
      </g>
     </g>
    </g>
    <g id="ytick_3">
     <g id="line2d_23">
      <g>
       <use style="stroke:#000000;stroke-width:0.5;" x="72.0" xlink:href="#md7965d1ba0" y="270.501992032"/>
      </g>
     </g>
     <g id="line2d_24">
      <g>
       <use style="stroke:#000000;stroke-width:0.5;" x="518.4" xlink:href="#md9a1c1a7cd" y="270.501992032"/>
      </g>
     </g>
     <g id="text_12">
      <!-- $400$ -->
      <g transform="translate(50.4410292458 273.487796912)scale(0.12 -0.12)">
       <use transform="scale(0.9962640099626402)" xlink:href="#CMR17-52"/>
       <use transform="translate(45.69047711706103 0.0)scale(0.9962640099626402)" xlink:href="#CMR17-48"/>
       <use transform="translate(91.38095423412206 0.0)scale(0.9962640099626402)" xlink:href="#CMR17-48"/>
      </g>
     </g>
    </g>
    <g id="ytick_4">
     <g id="line2d_25">
      <g>
       <use style="stroke:#000000;stroke-width:0.5;" x="72.0" xlink:href="#md7965d1ba0" y="213.131474104"/>
      </g>
     </g>
     <g id="line2d_26">
      <g>
       <use style="stroke:#000000;stroke-width:0.5;" x="518.4" xlink:href="#md9a1c1a7cd" y="213.131474104"/>
      </g>
     </g>
     <g id="text_13">
      <!-- $600$ -->
      <g transform="translate(50.4410292458 216.117278983)scale(0.12 -0.12)">
       <use transform="scale(0.9962640099626402)" xlink:href="#CMR17-54"/>
       <use transform="translate(45.69047711706103 0.0)scale(0.9962640099626402)" xlink:href="#CMR17-48"/>
       <use transform="translate(91.38095423412206 0.0)scale(0.9962640099626402)" xlink:href="#CMR17-48"/>
      </g>
     </g>
    </g>
    <g id="ytick_5">
     <g id="line2d_27">
      <g>
       <use style="stroke:#000000;stroke-width:0.5;" x="72.0" xlink:href="#md7965d1ba0" y="155.760956175"/>
      </g>
     </g>
     <g id="line2d_28">
      <g>
       <use style="stroke:#000000;stroke-width:0.5;" x="518.4" xlink:href="#md9a1c1a7cd" y="155.760956175"/>
      </g>
     </g>
     <g id="text_14">
      <!-- $800$ -->
      <g transform="translate(50.4410292458 158.746761055)scale(0.12 -0.12)">
       <use transform="scale(0.9962640099626402)" xlink:href="#CMR17-56"/>
       <use transform="translate(45.69047711706103 0.0)scale(0.9962640099626402)" xlink:href="#CMR17-48"/>
       <use transform="translate(91.38095423412206 0.0)scale(0.9962640099626402)" xlink:href="#CMR17-48"/>
      </g>
     </g>
    </g>
    <g id="ytick_6">
     <g id="line2d_29">
      <g>
       <use style="stroke:#000000;stroke-width:0.5;" x="72.0" xlink:href="#md7965d1ba0" y="98.390438247"/>
      </g>
     </g>
     <g id="line2d_30">
      <g>
       <use style="stroke:#000000;stroke-width:0.5;" x="518.4" xlink:href="#md9a1c1a7cd" y="98.390438247"/>
      </g>
     </g>
     <g id="text_15">
      <!-- $1000$ -->
      <g transform="translate(44.5880389944 101.376243127)scale(0.12 -0.12)">
       <use transform="scale(0.9962640099626402)" xlink:href="#CMR17-49"/>
       <use transform="translate(45.69047711706103 0.0)scale(0.9962640099626402)" xlink:href="#CMR17-48"/>
       <use transform="translate(91.38095423412206 0.0)scale(0.9962640099626402)" xlink:href="#CMR17-48"/>
       <use transform="translate(137.07143135118307 0.0)scale(0.9962640099626402)" xlink:href="#CMR17-48"/>
      </g>
     </g>
    </g>
    <g id="text_16">
     <!-- $y$ -->
     <defs>
      <path d="
M26.2969 -10.9375
C23.5938 -14.6719 19.7031 -18 14.7969 -18
C13.5938 -18 8.79688 -18 7.29688 -13.8906
C7.59375 -13.9844 8.09375 -13.9844 8.29688 -13.9844
C11.2969 -13.9844 13.2969 -11.3906 13.2969 -9.09375
C13.2969 -6.79688 11.4062 -6 9.90625 -6
C8.29688 -6 4.79688 -7.15625 4.79688 -11.8594
C4.79688 -16.7344 9.09375 -20.0938 14.7969 -20.0938
C24.7969 -20.0938 34.9062 -10.9375 37.7031 0.09375
L47.5 38.8281
C47.5938 39.3281 47.7969 39.9375 47.7969 40.5312
C47.7969 42.0156 46.5938 43.0156 45.0938 43.0156
C44.2031 43.0156 42.0938 42.6094 41.2969 39.6094
L33.9062 10.2812
C33.4062 8.48438 33.4062 8.28125 32.5938 7.1875
C30.5938 4.39062 27.2969 1 22.5 1
C16.9062 1 16.4062 6.48438 16.4062 9.1875
C16.4062 14.875 19.0938 22.5469 21.7969 29.7344
C22.9062 32.625 23.5 34.0312 23.5 36.0156
C23.5 40.2188 20.5 44 15.5938 44
C6.40625 44 2.70312 29.5312 2.70312 28.7344
C2.70312 28.3438 3.09375 27.8438 3.79688 27.8438
C4.70312 27.8438 4.79688 28.2344 5.20312 29.6406
C7.59375 38.0156 11.4062 42.0156 15.2969 42.0156
C16.2031 42.0156 17.9062 42.0156 17.9062 38.7188
C17.9062 36.125 16.7969 33.2344 15.2969 29.4375
C10.4062 16.3594 10.4062 13.0781 10.4062 10.6719
C10.4062 1.20312 17.2031 -1 22.2031 -1
C25.0938 -1 28.7031 -0.09375 32.2031 3.59375
L32.2969 3.5
C30.7969 -2.29688 29.7969 -6.125 26.2969 -10.9375" id="CMMI12-121"/>
     </defs>
     <g transform="translate(35.7684695575 220.280776312)rotate(-90.0)scale(0.18 -0.18)">
      <use transform="scale(0.9962640099626402)" xlink:href="#CMMI12-121"/>
     </g>
    </g>
   </g>
   <g id="patch_3">
    <path d="
M72 43.2
L518.4 43.2" style="fill:none;stroke:#000000;"/>
   </g>
   <g id="patch_4">
    <path d="
M72 388.8
L72 43.2" style="fill:none;stroke:#000000;"/>
   </g>
   <g id="patch_5">
    <path d="
M72 388.8
L518.4 388.8" style="fill:none;stroke:#000000;"/>
   </g>
   <g id="patch_6">
    <path d="
M518.4 388.8
L518.4 43.2" style="fill:none;stroke:#000000;"/>
   </g>
  </g>
 </g>
 <defs>
  <clipPath id="p7ff5b81e1d">
   <rect height="345.6" width="446.4" x="72.0" y="43.2"/>
  </clipPath>
 </defs>
</svg>
