<?xml version="1.0" encoding="utf-8" standalone="no"?>
<!DOCTYPE svg PUBLIC "-//W3C//DTD SVG 1.1//EN"
  "http://www.w3.org/Graphics/SVG/1.1/DTD/svg11.dtd">
<!-- Created with matplotlib (http://matplotlib.org/) -->
<svg height="432pt" version="1.1" viewBox="0 0 576 432" width="576pt" xmlns="http://www.w3.org/2000/svg" xmlns:xlink="http://www.w3.org/1999/xlink">
 <defs>
  <style type="text/css">
*{stroke-linecap:butt;stroke-linejoin:round;}
  </style>
 </defs>
 <g id="figure_1">
  <g id="patch_1">
   <path d="
M0 432
L576 432
L576 0
L0 0
z
" style="fill:#ffffff;"/>
  </g>
  <g id="axes_1">
   <g id="patch_2">
    <path d="
M72 388.8
L518.4 388.8
L518.4 43.2
L72 43.2
z
" style="fill:#ffffff;"/>
   </g>
   <g id="PathCollection_1">
    <defs>
     <path d="
M0 2.23607
C0.593012 2.23607 1.16182 2.00046 1.58114 1.58114
C2.00046 1.16182 2.23607 0.593012 2.23607 0
C2.23607 -0.593012 2.00046 -1.16182 1.58114 -1.58114
C1.16182 -2.00046 0.593012 -2.23607 0 -2.23607
C-0.593012 -2.23607 -1.16182 -2.00046 -1.58114 -1.58114
C-2.00046 -1.16182 -2.23607 -0.593012 -2.23607 0
C-2.23607 0.593012 -2.00046 1.16182 -1.58114 1.58114
C-1.16182 2.00046 -0.593012 2.23607 0 2.23607
z
" id="C0_0_919e3f95db"/>
    </defs>
    <g clip-path="url(#p7ff5b81e1d)">
     <use style="fill:#008000;stroke:#000000;" x="504.997215511" xlink:href="#C0_0_919e3f95db" y="161.106269453"/>
    </g>
    <g clip-path="url(#p7ff5b81e1d)">
     <use style="fill:#008000;stroke:#000000;" x="465.639391298" xlink:href="#C0_0_919e3f95db" y="201.91373944"/>
    </g>
    <g clip-path="url(#p7ff5b81e1d)">
     <use style="fill:#008000;stroke:#000000;" x="461.080999228" xlink:href="#C0_0_919e3f95db" y="245.965317919"/>
    </g>
    <g clip-path="url(#p7ff5b81e1d)">
     <use style="fill:#008000;stroke:#000000;" x="491.877940774" xlink:href="#C0_0_919e3f95db" y="235.550022232"/>
    </g>
    <g clip-path="url(#p7ff5b81e1d)">
     <use style="fill:#008000;stroke:#000000;" x="499.215840203" xlink:href="#C0_0_919e3f95db" y="232.647398844"/>
    </g>
    <g clip-path="url(#p7ff5b81e1d)">
     <use style="fill:#008000;stroke:#000000;" x="502.773609624" xlink:href="#C0_0_919e3f95db" y="228.54957759"/>
    </g>
    <g clip-path="url(#p7ff5b81e1d)">
     <use style="fill:#008000;stroke:#000000;" x="506.553739633" xlink:href="#C0_0_919e3f95db" y="272.430413517"/>
    </g>
    <g clip-path="url(#p7ff5b81e1d)">
     <use style="fill:#008000;stroke:#000000;" x="505.108395806" xlink:href="#C0_0_919e3f95db" y="284.04090707"/>
    </g>
    <g clip-path="url(#p7ff5b81e1d)">
     <use style="fill:#008000;stroke:#000000;" x="509.333246993" xlink:href="#C0_0_919e3f95db" y="353.362383281"/>
    </g>
    <g clip-path="url(#p7ff5b81e1d)">
     <use style="fill:#008000;stroke:#000000;" x="507.109641105" xlink:href="#C0_0_919e3f95db" y="368.729212984"/>
    </g>
    <g clip-path="url(#p7ff5b81e1d)">
     <use style="fill:#008000;stroke:#000000;" x="498.437578143" xlink:href="#C0_0_919e3f95db" y="357.289461983"/>
    </g>
    <g clip-path="url(#p7ff5b81e1d)">
     <use style="fill:#008000;stroke:#000000;" x="478.981026624" xlink:href="#C0_0_919e3f95db" y="378.803023566"/>
    </g>
    <g clip-path="url(#p7ff5b81e1d)">
     <use style="fill:#008000;stroke:#000000;" x="454.076640681" xlink:href="#C0_0_919e3f95db" y="361.728768341"/>
    </g>
    <g clip-path="url(#p7ff5b81e1d)">
     <use style="fill:#008000;stroke:#000000;" x="420.389011482" xlink:href="#C0_0_919e3f95db" y="235.037794575"/>
    </g>
    <g clip-path="url(#p7ff5b81e1d)">
     <use style="fill:#008000;stroke:#000000;" x="406.825015566" xlink:href="#C0_0_919e3f95db" y="250.916851934"/>
    </g>
    <g clip-path="url(#p7ff5b81e1d)">
     <use style="fill:#008000;stroke:#000000;" x="392.593937884" xlink:href="#C0_0_919e3f95db" y="290.87060916"/>
    </g>
    <g clip-path="url(#p7ff5b81e1d)">
     <use style="fill:#008000;stroke:#000000;" x="410.271604692" xlink:href="#C0_0_919e3f95db" y="305.212983548"/>
    </g>
    <g clip-path="url(#p7ff5b81e1d)">
     <use style="fill:#008000;stroke:#000000;" x="400.710099375" xlink:href="#C0_0_919e3f95db" y="328.604713206"/>
    </g>
    <g clip-path="url(#p7ff5b81e1d)">
     <use style="fill:#008000;stroke:#000000;" x="390.926233469" xlink:href="#C0_0_919e3f95db" y="369.753668297"/>
    </g>
    <g clip-path="url(#p7ff5b81e1d)">
     <use style="fill:#008000;stroke:#000000;" x="354.347916615" xlink:href="#C0_0_919e3f95db" y="363.094708759"/>
    </g>
    <g clip-path="url(#p7ff5b81e1d)">
     <use style="fill:#008000;stroke:#000000;" x="356.905063386" xlink:href="#C0_0_919e3f95db" y="345.849710983"/>
    </g>
    <g clip-path="url(#p7ff5b81e1d)">
     <use style="fill:#008000;stroke:#000000;" x="362.019356928" xlink:href="#C0_0_919e3f95db" y="334.580702534"/>
    </g>
    <g clip-path="url(#p7ff5b81e1d)">
     <use style="fill:#008000;stroke:#000000;" x="360.351652512" xlink:href="#C0_0_919e3f95db" y="283.870164518"/>
    </g>
    <g clip-path="url(#p7ff5b81e1d)">
     <use style="fill:#008000;stroke:#000000;" x="363.242340166" xlink:href="#C0_0_919e3f95db" y="232.305913739"/>
    </g>
    <g clip-path="url(#p7ff5b81e1d)">
     <use style="fill:#008000;stroke:#000000;" x="360.462832806" xlink:href="#C0_0_919e3f95db" y="224.622498888"/>
    </g>
    <g clip-path="url(#p7ff5b81e1d)">
     <use style="fill:#008000;stroke:#000000;" x="361.796996339" xlink:href="#C0_0_919e3f95db" y="166.570031125"/>
    </g>
    <g clip-path="url(#p7ff5b81e1d)">
     <use style="fill:#008000;stroke:#000000;" x="350.234245722" xlink:href="#C0_0_919e3f95db" y="184.156514006"/>
    </g>
    <g clip-path="url(#p7ff5b81e1d)">
     <use style="fill:#008000;stroke:#000000;" x="343.452247765" xlink:href="#C0_0_919e3f95db" y="214.207203201"/>
    </g>
    <g clip-path="url(#p7ff5b81e1d)">
     <use style="fill:#008000;stroke:#000000;" x="307.429832383" xlink:href="#C0_0_919e3f95db" y="218.64650956"/>
    </g>
    <g clip-path="url(#p7ff5b81e1d)">
     <use style="fill:#008000;stroke:#000000;" x="287.417379393" xlink:href="#C0_0_919e3f95db" y="268.84481992"/>
    </g>
    <g clip-path="url(#p7ff5b81e1d)">
     <use style="fill:#008000;stroke:#000000;" x="273.853383477" xlink:href="#C0_0_919e3f95db" y="221.890618052"/>
    </g>
    <g clip-path="url(#p7ff5b81e1d)">
     <use style="fill:#008000;stroke:#000000;" x="272.963941122" xlink:href="#C0_0_919e3f95db" y="213.865718097"/>
    </g>
    <g clip-path="url(#p7ff5b81e1d)">
     <use style="fill:#008000;stroke:#000000;" x="229.158905133" xlink:href="#C0_0_919e3f95db" y="152.569141841"/>
    </g>
    <g clip-path="url(#p7ff5b81e1d)">
     <use style="fill:#008000;stroke:#000000;" x="227.713561306" xlink:href="#C0_0_919e3f95db" y="225.817696754"/>
    </g>
    <g clip-path="url(#p7ff5b81e1d)">
     <use style="fill:#008000;stroke:#000000;" x="198.250783293" xlink:href="#C0_0_919e3f95db" y="206.52378835"/>
    </g>
    <g clip-path="url(#p7ff5b81e1d)">
     <use style="fill:#008000;stroke:#000000;" x="183.686164728" xlink:href="#C0_0_919e3f95db" y="221.378390396"/>
    </g>
    <g clip-path="url(#p7ff5b81e1d)">
     <use style="fill:#008000;stroke:#000000;" x="178.571871186" xlink:href="#C0_0_919e3f95db" y="223.085815918"/>
    </g>
    <g clip-path="url(#p7ff5b81e1d)">
     <use style="fill:#008000;stroke:#000000;" x="156.780533486" xlink:href="#C0_0_919e3f95db" y="211.133837261"/>
    </g>
    <g clip-path="url(#p7ff5b81e1d)">
     <use style="fill:#008000;stroke:#000000;" x="142.215914921" xlink:href="#C0_0_919e3f95db" y="271.235215651"/>
    </g>
    <g clip-path="url(#p7ff5b81e1d)">
     <use style="fill:#008000;stroke:#000000;" x="167.565022042" xlink:href="#C0_0_919e3f95db" y="280.28457092"/>
    </g>
    <g clip-path="url(#p7ff5b81e1d)">
     <use style="fill:#008000;stroke:#000000;" x="206.255764489" xlink:href="#C0_0_919e3f95db" y="265.600711427"/>
    </g>
    <g clip-path="url(#p7ff5b81e1d)">
     <use style="fill:#008000;stroke:#000000;" x="217.262613634" xlink:href="#C0_0_919e3f95db" y="296.505113384"/>
    </g>
    <g clip-path="url(#p7ff5b81e1d)">
     <use style="fill:#008000;stroke:#000000;" x="221.376284526" xlink:href="#C0_0_919e3f95db" y="338.337038684"/>
    </g>
    <g clip-path="url(#p7ff5b81e1d)">
     <use style="fill:#008000;stroke:#000000;" x="233.161395731" xlink:href="#C0_0_919e3f95db" y="363.265451312"/>
    </g>
    <g clip-path="url(#p7ff5b81e1d)">
     <use style="fill:#008000;stroke:#000000;" x="213.927204802" xlink:href="#C0_0_919e3f95db" y="375.729657626"/>
    </g>
    <g clip-path="url(#p7ff5b81e1d)">
     <use style="fill:#008000;stroke:#000000;" x="205.25514184" xlink:href="#C0_0_919e3f95db" y="369.070698088"/>
    </g>
    <g clip-path="url(#p7ff5b81e1d)">
     <use style="fill:#008000;stroke:#000000;" x="180.239575602" xlink:href="#C0_0_919e3f95db" y="340.385949311"/>
    </g>
    <g clip-path="url(#p7ff5b81e1d)">
     <use style="fill:#008000;stroke:#000000;" x="160.560663495" xlink:href="#C0_0_919e3f95db" y="319.213872832"/>
    </g>
    <g clip-path="url(#p7ff5b81e1d)">
     <use style="fill:#008000;stroke:#000000;" x="125.094149585" xlink:href="#C0_0_919e3f95db" y="329.116940863"/>
    </g>
    <g clip-path="url(#p7ff5b81e1d)">
     <use style="fill:#008000;stroke:#000000;" x="110.640711315" xlink:href="#C0_0_919e3f95db" y="340.898176968"/>
    </g>
    <g clip-path="url(#p7ff5b81e1d)">
     <use style="fill:#008000;stroke:#000000;" x="94.0748474509" xlink:href="#C0_0_919e3f95db" y="382.047132059"/>
    </g>
    <g clip-path="url(#p7ff5b81e1d)">
     <use style="fill:#008000;stroke:#000000;" x="101.079205997" xlink:href="#C0_0_919e3f95db" y="327.921742997"/>
    </g>
    <g clip-path="url(#p7ff5b81e1d)">
     <use style="fill:#008000;stroke:#000000;" x="76.3971806431" xlink:href="#C0_0_919e3f95db" y="271.064473099"/>
    </g>
    <g clip-path="url(#p7ff5b81e1d)">
     <use style="fill:#008000;stroke:#000000;" x="80.1773106523" xlink:href="#C0_0_919e3f95db" y="239.818586038"/>
    </g>
    <g clip-path="url(#p7ff5b81e1d)">
     <use style="fill:#008000;stroke:#000000;" x="76.7307215262" xlink:href="#C0_0_919e3f95db" y="217.622054246"/>
    </g>
    <g clip-path="url(#p7ff5b81e1d)">
     <use style="fill:#008000;stroke:#000000;" x="87.9599312595" xlink:href="#C0_0_919e3f95db" y="238.964873277"/>
    </g>
    <g clip-path="url(#p7ff5b81e1d)">
     <use style="fill:#008000;stroke:#000000;" x="92.1847824463" xlink:href="#C0_0_919e3f95db" y="231.452200978"/>
    </g>
    <g clip-path="url(#p7ff5b81e1d)">
     <use style="fill:#008000;stroke:#000000;" x="116.08854574" xlink:href="#C0_0_919e3f95db" y="245.28234771"/>
    </g>
    <g clip-path="url(#p7ff5b81e1d)">
     <use style="fill:#008000;stroke:#000000;" x="116.310906329" xlink:href="#C0_0_919e3f95db" y="207.206758559"/>
    </g>
    <g clip-path="url(#p7ff5b81e1d)">
     <use style="fill:#008000;stroke:#000000;" x="102.302189236" xlink:href="#C0_0_919e3f95db" y="174.424188528"/>
    </g>
    <g clip-path="url(#p7ff5b81e1d)">
     <use style="fill:#008000;stroke:#000000;" x="104.748155712" xlink:href="#C0_0_919e3f95db" y="143.690529124"/>
    </g>
    <g clip-path="url(#p7ff5b81e1d)">
     <use style="fill:#008000;stroke:#000000;" x="107.416482778" xlink:href="#C0_0_919e3f95db" y="127.811471765"/>
    </g>
    <g clip-path="url(#p7ff5b81e1d)">
     <use style="fill:#008000;stroke:#000000;" x="96.2984533386" xlink:href="#C0_0_919e3f95db" y="77.1009337483"/>
    </g>
    <g clip-path="url(#p7ff5b81e1d)">
     <use style="fill:#008000;stroke:#000000;" x="125.761231352" xlink:href="#C0_0_919e3f95db" y="101.004891063"/>
    </g>
    <g clip-path="url(#p7ff5b81e1d)">
     <use style="fill:#008000;stroke:#000000;" x="142.215914921" xlink:href="#C0_0_919e3f95db" y="149.837261005"/>
    </g>
    <g clip-path="url(#p7ff5b81e1d)">
     <use style="fill:#008000;stroke:#000000;" x="156.335812309" xlink:href="#C0_0_919e3f95db" y="159.911071587"/>
    </g>
    <g clip-path="url(#p7ff5b81e1d)">
     <use style="fill:#008000;stroke:#000000;" x="171.233971757" xlink:href="#C0_0_919e3f95db" y="119.957314362"/>
    </g>
    <g clip-path="url(#p7ff5b81e1d)">
     <use style="fill:#008000;stroke:#000000;" x="177.460068242" xlink:href="#C0_0_919e3f95db" y="95.8826144953"/>
    </g>
    <g clip-path="url(#p7ff5b81e1d)">
     <use style="fill:#008000;stroke:#000000;" x="177.571248537" xlink:href="#C0_0_919e3f95db" y="84.6136060471"/>
    </g>
    <g clip-path="url(#p7ff5b81e1d)">
     <use style="fill:#008000;stroke:#000000;" x="173.235217056" xlink:href="#C0_0_919e3f95db" y="70.9542018675"/>
    </g>
    <g clip-path="url(#p7ff5b81e1d)">
     <use style="fill:#008000;stroke:#000000;" x="211.481238325" xlink:href="#C0_0_919e3f95db" y="53.879946643"/>
    </g>
    <g clip-path="url(#p7ff5b81e1d)">
     <use style="fill:#008000;stroke:#000000;" x="212.926582152" xlink:href="#C0_0_919e3f95db" y="54.0506891952"/>
    </g>
    <g clip-path="url(#p7ff5b81e1d)">
     <use style="fill:#008000;stroke:#000000;" x="213.37130333" xlink:href="#C0_0_919e3f95db" y="73.3445975989"/>
    </g>
    <g clip-path="url(#p7ff5b81e1d)">
     <use style="fill:#008000;stroke:#000000;" x="232.605494259" xlink:href="#C0_0_919e3f95db" y="91.1018230325"/>
    </g>
    <g clip-path="url(#p7ff5b81e1d)">
     <use style="fill:#008000;stroke:#000000;" x="254.508012254" xlink:href="#C0_0_919e3f95db" y="73.6860827034"/>
    </g>
    <g clip-path="url(#p7ff5b81e1d)">
     <use style="fill:#008000;stroke:#000000;" x="254.952733431" xlink:href="#C0_0_919e3f95db" y="104.248999555"/>
    </g>
    <g clip-path="url(#p7ff5b81e1d)">
     <use style="fill:#008000;stroke:#000000;" x="265.959582576" xlink:href="#C0_0_919e3f95db" y="105.785682526"/>
    </g>
    <g clip-path="url(#p7ff5b81e1d)">
     <use style="fill:#008000;stroke:#000000;" x="275.18754701" xlink:href="#C0_0_919e3f95db" y="94.0044464206"/>
    </g>
    <g clip-path="url(#p7ff5b81e1d)">
     <use style="fill:#008000;stroke:#000000;" x="316.435436228" xlink:href="#C0_0_919e3f95db" y="109.712761227"/>
    </g>
    <g clip-path="url(#p7ff5b81e1d)">
     <use style="fill:#008000;stroke:#000000;" x="312.099404747" xlink:href="#C0_0_919e3f95db" y="77.7839039573"/>
    </g>
    <g clip-path="url(#p7ff5b81e1d)">
     <use style="fill:#008000;stroke:#000000;" x="328.8876292" xlink:href="#C0_0_919e3f95db" y="77.1009337483"/>
    </g>
    <g clip-path="url(#p7ff5b81e1d)">
     <use style="fill:#008000;stroke:#000000;" x="360.351652512" xlink:href="#C0_0_919e3f95db" y="49.9528679413"/>
    </g>
    <g clip-path="url(#p7ff5b81e1d)">
     <use style="fill:#008000;stroke:#000000;" x="363.019979577" xlink:href="#C0_0_919e3f95db" y="73.6860827034"/>
    </g>
    <g clip-path="url(#p7ff5b81e1d)">
     <use style="fill:#008000;stroke:#000000;" x="372.025583423" xlink:href="#C0_0_919e3f95db" y="74.5397954647"/>
    </g>
    <g clip-path="url(#p7ff5b81e1d)">
     <use style="fill:#008000;stroke:#000000;" x="377.584598142" xlink:href="#C0_0_919e3f95db" y="96.2240995998"/>
    </g>
    <g clip-path="url(#p7ff5b81e1d)">
     <use style="fill:#008000;stroke:#000000;" x="360.685193395" xlink:href="#C0_0_919e3f95db" y="99.9804357492"/>
    </g>
    <g clip-path="url(#p7ff5b81e1d)">
     <use style="fill:#008000;stroke:#000000;" x="366.466568703" xlink:href="#C0_0_919e3f95db" y="133.616718542"/>
    </g>
    <g clip-path="url(#p7ff5b81e1d)">
     <use style="fill:#008000;stroke:#000000;" x="376.250434609" xlink:href="#C0_0_919e3f95db" y="141.641618497"/>
    </g>
    <g clip-path="url(#p7ff5b81e1d)">
     <use style="fill:#008000;stroke:#000000;" x="376.806336081" xlink:href="#C0_0_919e3f95db" y="133.104490885"/>
    </g>
    <g clip-path="url(#p7ff5b81e1d)">
     <use style="fill:#008000;stroke:#000000;" x="401.710722024" xlink:href="#C0_0_919e3f95db" y="109.20053357"/>
    </g>
    <g clip-path="url(#p7ff5b81e1d)">
     <use style="fill:#008000;stroke:#000000;" x="403.489606735" xlink:href="#C0_0_919e3f95db" y="112.103156959"/>
    </g>
    <g clip-path="url(#p7ff5b81e1d)">
     <use style="fill:#008000;stroke:#000000;" x="417.275963239" xlink:href="#C0_0_919e3f95db" y="125.250333482"/>
    </g>
    <g clip-path="url(#p7ff5b81e1d)">
     <use style="fill:#008000;stroke:#000000;" x="450.518871261" xlink:href="#C0_0_919e3f95db" y="130.372610049"/>
    </g>
    <g clip-path="url(#p7ff5b81e1d)">
     <use style="fill:#008000;stroke:#000000;" x="449.295888023" xlink:href="#C0_0_919e3f95db" y="105.102712317"/>
    </g>
    <g clip-path="url(#p7ff5b81e1d)">
     <use style="fill:#008000;stroke:#000000;" x="457.523229807" xlink:href="#C0_0_919e3f95db" y="73.6860827034"/>
    </g>
    <g clip-path="url(#p7ff5b81e1d)">
     <use style="fill:#008000;stroke:#000000;" x="464.527588354" xlink:href="#C0_0_919e3f95db" y="100.83414851"/>
    </g>
    <g clip-path="url(#p7ff5b81e1d)">
     <use style="fill:#008000;stroke:#000000;" x="483.761779283" xlink:href="#C0_0_919e3f95db" y="124.39662072"/>
    </g>
    <g clip-path="url(#p7ff5b81e1d)">
     <use style="fill:#008000;stroke:#000000;" x="509.110886404" xlink:href="#C0_0_919e3f95db" y="100.492663406"/>
    </g>
    <g clip-path="url(#p7ff5b81e1d)">
     <use style="fill:#008000;stroke:#000000;" x="514.002819357" xlink:href="#C0_0_919e3f95db" y="88.5406847488"/>
    </g>
    <g clip-path="url(#p7ff5b81e1d)">
     <use style="fill:#008000;stroke:#000000;" x="513.446917885" xlink:href="#C0_0_919e3f95db" y="120.128056914"/>
    </g>
    <g clip-path="url(#p7ff5b81e1d)">
     <use style="fill:#008000;stroke:#000000;" x="504.997215511" xlink:href="#C0_0_919e3f95db" y="161.106269453"/>
    </g>
   </g>
   <g id="line2d_1">
    <path clip-path="url(#p7ff5b81e1d)" d="
M504.997 161.106
L465.639 201.914
L461.081 245.965
L491.878 235.55
L499.216 232.647
L502.774 228.55
L506.554 272.43
L505.108 284.041
L509.333 353.362
L507.11 368.729
L498.438 357.289
L478.981 378.803
L454.077 361.729
L420.389 235.038
L406.825 250.917
L392.594 290.871
L410.272 305.213
L400.71 328.605
L390.926 369.754
L354.348 363.095
L356.905 345.85
L362.019 334.581
L360.352 283.87
L363.242 232.306
L360.463 224.622
L361.797 166.57
L350.234 184.157
L343.452 214.207
L307.43 218.647
L287.417 268.845
L273.853 221.891
L272.964 213.866
L229.159 152.569
L227.714 225.818
L198.251 206.524
L183.686 221.378
L178.572 223.086
L156.781 211.134
L142.216 271.235
L167.565 280.285
L206.256 265.601
L217.263 296.505
L221.376 338.337
L233.161 363.265
L213.927 375.73
L205.255 369.071
L180.24 340.386
L160.561 319.214
L125.094 329.117
L110.641 340.898
L94.0748 382.047
L101.079 327.922
L76.3972 271.064
L80.1773 239.819
L76.7307 217.622
L87.9599 238.965
L92.1848 231.452
L116.089 245.282
L116.311 207.207
L102.302 174.424
L104.748 143.691
L107.416 127.811
L96.2985 77.1009
L125.761 101.005
L142.216 149.837
L156.336 159.911
L171.234 119.957
L177.46 95.8826
L177.571 84.6136
L173.235 70.9542
L211.481 53.8799
L212.927 54.0507
L213.371 73.3446
L232.605 91.1018
L254.508 73.6861
L254.953 104.249
L265.96 105.786
L275.188 94.0044
L316.435 109.713
L312.099 77.7839
L328.888 77.1009
L360.352 49.9529
L363.02 73.6861
L372.026 74.5398
L377.585 96.2241
L360.685 99.9804
L366.467 133.617
L376.25 141.642
L376.806 133.104
L401.711 109.201
L403.49 112.103
L417.276 125.25
L450.519 130.373
L449.296 105.103
L457.523 73.6861
L464.528 100.834
L483.762 124.397
L509.111 100.493
L514.003 88.5407
L513.447 120.128
L504.997 161.106" style="fill:none;stroke:#0000ff;stroke-linecap:square;"/>
   </g>
   <g id="line2d_2">
    <path clip-path="url(#p7ff5b81e1d)" d="
M504.997 161.106
L504.997 161.106" style="fill:none;stroke:#0000ff;stroke-linecap:square;"/>
   </g>
   <g id="matplotlib.axis_1">
    <g id="xtick_1">
     <g id="line2d_3">
      <defs>
       <path d="
M0 0
L0 -4" id="mc7db9fdffb" style="stroke:#000000;stroke-width:0.5;"/>
      </defs>
      <g>
       <use style="stroke:#000000;stroke-width:0.5;" x="74.2847550497" xlink:href="#mc7db9fdffb" y="388.8"/>
      </g>
     </g>
     <g id="line2d_4">
      <defs>
       <path d="
M0 0
L0 4" id="m5a7d422ac3" style="stroke:#000000;stroke-width:0.5;"/>
      </defs>
      <g>
       <use style="stroke:#000000;stroke-width:0.5;" x="74.2847550497" xlink:href="#m5a7d422ac3" y="43.2"/>
      </g>
     </g>
     <g id="text_1">
      <!-- $0$ -->
      <defs>
       <path d="
M42 31.6406
C42 37.75 41.9062 48.125 37.7031 56.1094
C34 63.1094 28.0938 65.5938 22.9062 65.5938
C18.0938 65.5938 12 63.4062 8.20312 56.2031
C4.20312 48.7188 3.79688 39.4375 3.79688 31.6406
C3.79688 25.9531 3.90625 17.2812 7 9.67188
C11.2969 -0.609375 19 -2 22.9062 -2
C27.5 -2 34.5 -0.109375 38.5938 9.375
C41.5938 16.2812 42 24.3594 42 31.6406
M22.9062 -0.40625
C16.5 -0.40625 12.7031 5.07812 11.2969 12.6875
C10.2031 18.5625 10.2031 27.1562 10.2031 32.75
C10.2031 40.4375 10.2031 46.8281 11.5 52.9219
C13.4062 61.3906 19 64 22.9062 64
C27 64 32.2969 61.2969 34.2031 53.125
C35.5 47.4375 35.5938 40.7344 35.5938 32.75
C35.5938 26.25 35.5938 18.2656 34.4062 12.375
C32.2969 1.48438 26.4062 -0.40625 22.9062 -0.40625" id="CMR17-48"/>
      </defs>
      <g transform="translate(71.358259924 401.317984317)scale(0.12 -0.12)">
       <use transform="scale(0.9962640099626402)" xlink:href="#CMR17-48"/>
      </g>
     </g>
    </g>
    <g id="xtick_2">
     <g id="line2d_5">
      <g>
       <use style="stroke:#000000;stroke-width:0.5;" x="129.874902244" xlink:href="#mc7db9fdffb" y="388.8"/>
      </g>
     </g>
     <g id="line2d_6">
      <g>
       <use style="stroke:#000000;stroke-width:0.5;" x="129.874902244" xlink:href="#m5a7d422ac3" y="43.2"/>
      </g>
     </g>
     <g id="text_2">
      <!-- $500$ -->
      <defs>
       <path d="
M11.4062 57.6875
C12.4062 57.2812 16.5 56 20.7031 56
C30 56 35.0938 61.0156 38 63.9219
C38 64.7344 38 65.25 37.4062 65.25
C37.2969 65.25 37.0938 65.25 36.2969 64.8281
C32.7969 63.3125 28.7031 62.0781 23.7031 62.0781
C20.7031 62.0781 16.2031 62.5 11.2969 64.7344
C10.2031 65.25 10 65.25 9.90625 65.25
C9.40625 65.25 9.29688 65.1406 9.29688 63.1562
L9.29688 34.2812
C9.29688 32.5 9.29688 32 10.2969 32
C10.7969 32 11 32.2031 11.5 32.9062
C14.7031 37.4844 19.0938 39.4062 24.0938 39.4062
C27.5938 39.4062 35.0938 37.2188 35.0938 20.1406
C35.0938 16.9531 35.0938 11.1719 32.0938 6.57812
C29.5938 2.48438 25.7031 0.390625 21.4062 0.390625
C14.7969 0.390625 8.09375 5 6.29688 12.7188
C6.70312 12.6094 7.5 12.4219 7.90625 12.4219
C9.20312 12.4219 11.7031 13.125 11.7031 16.2188
C11.7031 18.9062 9.79688 20 7.90625 20
C5.59375 20 4.09375 18.5938 4.09375 15.7969
C4.09375 7.09375 11 -2 21.5938 -2
C31.9062 -2 41.7031 6.875 41.7031 19.75
C41.7031 31.7188 33.9062 41 24.2031 41
C19.0938 41 14.7969 39.0938 11.4062 35.4531
z
" id="CMR17-53"/>
      </defs>
      <g transform="translate(121.095416867 401.317984317)scale(0.12 -0.12)">
       <use transform="scale(0.9962640099626402)" xlink:href="#CMR17-53"/>
       <use transform="translate(45.69047711706103 0.0)scale(0.9962640099626402)" xlink:href="#CMR17-48"/>
       <use transform="translate(91.38095423412206 0.0)scale(0.9962640099626402)" xlink:href="#CMR17-48"/>
      </g>
     </g>
    </g>
    <g id="xtick_3">
     <g id="line2d_7">
      <g>
       <use style="stroke:#000000;stroke-width:0.5;" x="185.465049438" xlink:href="#mc7db9fdffb" y="388.8"/>
      </g>
     </g>
     <g id="line2d_8">
      <g>
       <use style="stroke:#000000;stroke-width:0.5;" x="185.465049438" xlink:href="#m5a7d422ac3" y="43.2"/>
      </g>
     </g>
     <g id="text_3">
      <!-- $1000$ -->
      <defs>
       <path d="
M26.5938 63.3125
C26.5938 65.4062 26.5 65.5 25.0938 65.5
C21.2031 61.1875 15.2969 59.7969 9.70312 59.7969
C9.40625 59.7969 8.90625 59.7969 8.79688 59.6094
C8.70312 59.3906 8.70312 59.1719 8.70312 57
C11.7969 57 17 57.5938 21 59.9844
L21 7.20312
C21 3.6875 20.7969 2.5 12.2031 2.5
L9.20312 2.5
L9.20312 0
C14 0 19 0 23.7969 0
C28.5938 0 33.5938 0 38.4062 0
L38.4062 2.5
L35.4062 2.5
C26.7969 2.5 26.5938 3.59375 26.5938 7.15625
z
" id="CMR17-49"/>
      </defs>
      <g transform="translate(173.759068936 401.317984317)scale(0.12 -0.12)">
       <use transform="scale(0.9962640099626402)" xlink:href="#CMR17-49"/>
       <use transform="translate(45.69047711706103 0.0)scale(0.9962640099626402)" xlink:href="#CMR17-48"/>
       <use transform="translate(91.38095423412206 0.0)scale(0.9962640099626402)" xlink:href="#CMR17-48"/>
       <use transform="translate(137.07143135118307 0.0)scale(0.9962640099626402)" xlink:href="#CMR17-48"/>
      </g>
     </g>
    </g>
    <g id="xtick_4">
     <g id="line2d_9">
      <g>
       <use style="stroke:#000000;stroke-width:0.5;" x="241.055196633" xlink:href="#mc7db9fdffb" y="388.8"/>
      </g>
     </g>
     <g id="line2d_10">
      <g>
       <use style="stroke:#000000;stroke-width:0.5;" x="241.055196633" xlink:href="#m5a7d422ac3" y="43.2"/>
      </g>
     </g>
     <g id="text_4">
      <!-- $1500$ -->
      <g transform="translate(229.34921613 401.317984317)scale(0.12 -0.12)">
       <use transform="scale(0.9962640099626402)" xlink:href="#CMR17-49"/>
       <use transform="translate(45.69047711706103 0.0)scale(0.9962640099626402)" xlink:href="#CMR17-53"/>
       <use transform="translate(91.38095423412206 0.0)scale(0.9962640099626402)" xlink:href="#CMR17-48"/>
       <use transform="translate(137.07143135118307 0.0)scale(0.9962640099626402)" xlink:href="#CMR17-48"/>
      </g>
     </g>
    </g>
    <g id="xtick_5">
     <g id="line2d_11">
      <g>
       <use style="stroke:#000000;stroke-width:0.5;" x="296.645343827" xlink:href="#mc7db9fdffb" y="388.8"/>
      </g>
     </g>
     <g id="line2d_12">
      <g>
       <use style="stroke:#000000;stroke-width:0.5;" x="296.645343827" xlink:href="#m5a7d422ac3" y="43.2"/>
      </g>
     </g>
     <g id="text_5">
      <!-- $2000$ -->
      <defs>
       <path d="
M41.7031 15.4531
L39.9062 15.4531
C38.9062 8.375 38.0938 7.17188 37.7031 6.5625
C37.2031 5.76562 30 5.76562 28.5938 5.76562
L9.40625 5.76562
C13 9.67188 20 16.75 28.5 24.9531
C34.5938 30.7344 41.7031 37.5312 41.7031 47.4219
C41.7031 59.2188 32.2969 66 21.7969 66
C10.7969 66 4.09375 56.3125 4.09375 47.3438
C4.09375 43.4375 7 42.9375 8.20312 42.9375
C9.20312 42.9375 12.2031 43.5469 12.2031 47.0312
C12.2031 50.1094 9.59375 51 8.20312 51
C7.59375 51 7 50.9062 6.59375 50.7031
C8.5 59.2188 14.2969 63.4062 20.4062 63.4062
C29.0938 63.4062 34.7969 56.5156 34.7969 47.4219
C34.7969 38.7344 29.7031 31.25 24 24.75
L4.09375 2.28125
L4.09375 0
L39.2969 0
z
" id="CMR17-50"/>
      </defs>
      <g transform="translate(284.939363324 401.317984317)scale(0.12 -0.12)">
       <use transform="scale(0.9962640099626402)" xlink:href="#CMR17-50"/>
       <use transform="translate(45.69047711706103 0.0)scale(0.9962640099626402)" xlink:href="#CMR17-48"/>
       <use transform="translate(91.38095423412206 0.0)scale(0.9962640099626402)" xlink:href="#CMR17-48"/>
       <use transform="translate(137.07143135118307 0.0)scale(0.9962640099626402)" xlink:href="#CMR17-48"/>
      </g>
     </g>
    </g>
    <g id="xtick_6">
     <g id="line2d_13">
      <g>
       <use style="stroke:#000000;stroke-width:0.5;" x="352.235491021" xlink:href="#mc7db9fdffb" y="388.8"/>
      </g>
     </g>
     <g id="line2d_14">
      <g>
       <use style="stroke:#000000;stroke-width:0.5;" x="352.235491021" xlink:href="#m5a7d422ac3" y="43.2"/>
      </g>
     </g>
     <g id="text_6">
      <!-- $2500$ -->
      <g transform="translate(340.529510519 401.317984317)scale(0.12 -0.12)">
       <use transform="scale(0.9962640099626402)" xlink:href="#CMR17-50"/>
       <use transform="translate(45.69047711706103 0.0)scale(0.9962640099626402)" xlink:href="#CMR17-53"/>
       <use transform="translate(91.38095423412206 0.0)scale(0.9962640099626402)" xlink:href="#CMR17-48"/>
       <use transform="translate(137.07143135118307 0.0)scale(0.9962640099626402)" xlink:href="#CMR17-48"/>
      </g>
     </g>
    </g>
    <g id="xtick_7">
     <g id="line2d_15">
      <g>
       <use style="stroke:#000000;stroke-width:0.5;" x="407.825638216" xlink:href="#mc7db9fdffb" y="388.8"/>
      </g>
     </g>
     <g id="line2d_16">
      <g>
       <use style="stroke:#000000;stroke-width:0.5;" x="407.825638216" xlink:href="#m5a7d422ac3" y="43.2"/>
      </g>
     </g>
     <g id="text_7">
      <!-- $3000$ -->
      <defs>
       <path d="
M22.0938 33.7031
C31 33.7031 34.9062 25.9688 34.9062 17.0312
C34.9062 5 28.5 0.390625 22.7031 0.390625
C17.4062 0.390625 8.79688 3.03125 6.09375 10.8281
C6.59375 10.625 7.09375 10.625 7.59375 10.625
C10 10.625 11.7969 12.2188 11.7969 14.8125
C11.7969 17.7031 9.59375 19 7.59375 19
C5.90625 19 3.29688 18.2031 3.29688 14.4688
C3.29688 5.23438 12.2969 -2 22.9062 -2
C34 -2 42.5 6.71875 42.5 16.9531
C42.5 26.6719 34.5 33.6875 25 34.7969
C32.5938 36.375 39.9062 43.0625 39.9062 52.0156
C39.9062 59.6875 32 65.2969 23 65.2969
C13.9062 65.2969 5.90625 59.8281 5.90625 52.0156
C5.90625 48.5938 8.5 48 9.79688 48
C11.9062 48 13.7031 49.2969 13.7031 51.8906
C13.7031 54.4688 11.9062 55.7656 9.79688 55.7656
C9.40625 55.7656 8.90625 55.7656 8.5 55.5625
C11.4062 61.8594 19.2969 63 22.7969 63
C26.2969 63 32.9062 61.3281 32.9062 51.875
C32.9062 49.1094 32.5 44.1875 29.0938 39.8438
C26.0938 36 22.7031 36 19.4062 35.5938
C18.9062 35.5938 16.5938 35.5938 16.2031 35.5938
C15.5 35.4844 15.0938 35.3906 15.0938 34.5938
C15.0938 33.8125 15.2031 33.7031 17.2031 33.7031
z
" id="CMR17-51"/>
      </defs>
      <g transform="translate(396.119657713 401.317984317)scale(0.12 -0.12)">
       <use transform="scale(0.9962640099626402)" xlink:href="#CMR17-51"/>
       <use transform="translate(45.69047711706103 0.0)scale(0.9962640099626402)" xlink:href="#CMR17-48"/>
       <use transform="translate(91.38095423412206 0.0)scale(0.9962640099626402)" xlink:href="#CMR17-48"/>
       <use transform="translate(137.07143135118307 0.0)scale(0.9962640099626402)" xlink:href="#CMR17-48"/>
      </g>
     </g>
    </g>
    <g id="xtick_8">
     <g id="line2d_17">
      <g>
       <use style="stroke:#000000;stroke-width:0.5;" x="463.41578541" xlink:href="#mc7db9fdffb" y="388.8"/>
      </g>
     </g>
     <g id="line2d_18">
      <g>
       <use style="stroke:#000000;stroke-width:0.5;" x="463.41578541" xlink:href="#m5a7d422ac3" y="43.2"/>
      </g>
     </g>
     <g id="text_8">
      <!-- $3500$ -->
      <g transform="translate(451.709804907 401.317984317)scale(0.12 -0.12)">
       <use transform="scale(0.9962640099626402)" xlink:href="#CMR17-51"/>
       <use transform="translate(45.69047711706103 0.0)scale(0.9962640099626402)" xlink:href="#CMR17-53"/>
       <use transform="translate(91.38095423412206 0.0)scale(0.9962640099626402)" xlink:href="#CMR17-48"/>
       <use transform="translate(137.07143135118307 0.0)scale(0.9962640099626402)" xlink:href="#CMR17-48"/>
      </g>
     </g>
    </g>
    <g id="text_9">
     <!-- $x$ -->
     <defs>
      <path d="
M47.4062 40.7188
C44.2031 40.1094 43 37.7188 43 35.8281
C43 33.4219 44.9062 32.625 46.2969 32.625
C49.2969 32.625 51.4062 35.2188 51.4062 37.9219
C51.4062 42.1094 46.5938 44 42.4062 44
C36.2969 44 32.9062 38.0156 32 36.125
C29.7031 44 23.5 44 21.7031 44
C11.5 44 6.09375 30.9375 6.09375 28.7344
C6.09375 28.3438 6.5 27.8438 7.20312 27.8438
C8 27.8438 8.20312 28.4375 8.40625 28.8438
C11.7969 39.9219 18.5 42.0156 21.4062 42.0156
C25.9062 42.0156 26.7969 37.8125 26.7969 35.4219
C26.7969 33.2344 26.2031 30.9375 25 26.1406
L21.5938 12.4688
C20.0938 6.48438 17.2031 1 11.9062 1
C11.4062 1 8.90625 1 6.79688 2.29688
C10.4062 3 11.2031 5.98438 11.2031 7.1875
C11.2031 9.1875 9.70312 10.375 7.79688 10.375
C5.40625 10.375 2.79688 8.28125 2.79688 5.09375
C2.79688 0.890625 7.5 -1 11.7969 -1
C16.5938 -1 20 2.79688 22.0938 6.89062
C23.7031 1 28.7031 -1 32.4062 -1
C42.5938 -1 48 12.0781 48 14.2656
C48 14.7656 47.5938 15.1719 47 15.1719
C46.0938 15.1719 46 14.6719 45.7031 13.875
C43 5.09375 37.2031 1 32.7031 1
C29.2031 1 27.2969 3.59375 27.2969 7.6875
C27.2969 9.875 27.7031 11.4688 29.2969 18.0625
L32.7969 31.625
C34.2969 37.625 37.7031 42.0156 42.2969 42.0156
C42.5 42.0156 45.2969 42.0156 47.4062 40.7188" id="CMMI12-120"/>
     </defs>
     <g transform="translate(290.210934642 421.641335349)scale(0.18 -0.18)">
      <use transform="scale(0.9962640099626402)" xlink:href="#CMMI12-120"/>
     </g>
    </g>
   </g>
   <g id="matplotlib.axis_2">
    <g id="ytick_1">
     <g id="line2d_19">
      <defs>
       <path d="
M0 0
L4 0" id="md7965d1ba0" style="stroke:#000000;stroke-width:0.5;"/>
      </defs>
      <g>
       <use style="stroke:#000000;stroke-width:0.5;" x="72.0" xlink:href="#md7965d1ba0" y="386.144953313"/>
      </g>
     </g>
     <g id="line2d_20">
      <defs>
       <path d="
M0 0
L-4 0" id="md9a1c1a7cd" style="stroke:#000000;stroke-width:0.5;"/>
      </defs>
      <g>
       <use style="stroke:#000000;stroke-width:0.5;" x="518.4" xlink:href="#md9a1c1a7cd" y="386.144953313"/>
      </g>
     </g>
     <g id="text_10">
      <!-- $0$ -->
      <g transform="translate(62.1470097486 389.130758192)scale(0.12 -0.12)">
       <use transform="scale(0.9962640099626402)" xlink:href="#CMR17-48"/>
      </g>
     </g>
    </g>
    <g id="ytick_2">
     <g id="line2d_21">
      <g>
       <use style="stroke:#000000;stroke-width:0.5;" x="72.0" xlink:href="#md7965d1ba0" y="300.77367719"/>
      </g>
     </g>
     <g id="line2d_22">
      <g>
       <use style="stroke:#000000;stroke-width:0.5;" x="518.4" xlink:href="#md9a1c1a7cd" y="300.77367719"/>
      </g>
     </g>
     <g id="text_11">
      <!-- $500$ -->
      <g transform="translate(50.4410292458 303.75948207)scale(0.12 -0.12)">
       <use transform="scale(0.9962640099626402)" xlink:href="#CMR17-53"/>
       <use transform="translate(45.69047711706103 0.0)scale(0.9962640099626402)" xlink:href="#CMR17-48"/>
       <use transform="translate(91.38095423412206 0.0)scale(0.9962640099626402)" xlink:href="#CMR17-48"/>
      </g>
     </g>
    </g>
    <g id="ytick_3">
     <g id="line2d_23">
      <g>
       <use style="stroke:#000000;stroke-width:0.5;" x="72.0" xlink:href="#md7965d1ba0" y="215.402401067"/>
      </g>
     </g>
     <g id="line2d_24">
      <g>
       <use style="stroke:#000000;stroke-width:0.5;" x="518.4" xlink:href="#md9a1c1a7cd" y="215.402401067"/>
      </g>
     </g>
     <g id="text_12">
      <!-- $1000$ -->
      <g transform="translate(44.5880389944 218.388205947)scale(0.12 -0.12)">
       <use transform="scale(0.9962640099626402)" xlink:href="#CMR17-49"/>
       <use transform="translate(45.69047711706103 0.0)scale(0.9962640099626402)" xlink:href="#CMR17-48"/>
       <use transform="translate(91.38095423412206 0.0)scale(0.9962640099626402)" xlink:href="#CMR17-48"/>
       <use transform="translate(137.07143135118307 0.0)scale(0.9962640099626402)" xlink:href="#CMR17-48"/>
      </g>
     </g>
    </g>
    <g id="ytick_4">
     <g id="line2d_25">
      <g>
       <use style="stroke:#000000;stroke-width:0.5;" x="72.0" xlink:href="#md7965d1ba0" y="130.031124944"/>
      </g>
     </g>
     <g id="line2d_26">
      <g>
       <use style="stroke:#000000;stroke-width:0.5;" x="518.4" xlink:href="#md9a1c1a7cd" y="130.031124944"/>
      </g>
     </g>
     <g id="text_13">
      <!-- $1500$ -->
      <g transform="translate(44.5880389944 133.016929824)scale(0.12 -0.12)">
       <use transform="scale(0.9962640099626402)" xlink:href="#CMR17-49"/>
       <use transform="translate(45.69047711706103 0.0)scale(0.9962640099626402)" xlink:href="#CMR17-53"/>
       <use transform="translate(91.38095423412206 0.0)scale(0.9962640099626402)" xlink:href="#CMR17-48"/>
       <use transform="translate(137.07143135118307 0.0)scale(0.9962640099626402)" xlink:href="#CMR17-48"/>
      </g>
     </g>
    </g>
    <g id="ytick_5">
     <g id="line2d_27">
      <g>
       <use style="stroke:#000000;stroke-width:0.5;" x="72.0" xlink:href="#md7965d1ba0" y="44.6598488217"/>
      </g>
     </g>
     <g id="line2d_28">
      <g>
       <use style="stroke:#000000;stroke-width:0.5;" x="518.4" xlink:href="#md9a1c1a7cd" y="44.6598488217"/>
      </g>
     </g>
     <g id="text_14">
      <!-- $2000$ -->
      <g transform="translate(44.5880389944 47.6456537013)scale(0.12 -0.12)">
       <use transform="scale(0.9962640099626402)" xlink:href="#CMR17-50"/>
       <use transform="translate(45.69047711706103 0.0)scale(0.9962640099626402)" xlink:href="#CMR17-48"/>
       <use transform="translate(91.38095423412206 0.0)scale(0.9962640099626402)" xlink:href="#CMR17-48"/>
       <use transform="translate(137.07143135118307 0.0)scale(0.9962640099626402)" xlink:href="#CMR17-48"/>
      </g>
     </g>
    </g>
    <g id="text_15">
     <!-- $y$ -->
     <defs>
      <path d="
M26.2969 -10.9375
C23.5938 -14.6719 19.7031 -18 14.7969 -18
C13.5938 -18 8.79688 -18 7.29688 -13.8906
C7.59375 -13.9844 8.09375 -13.9844 8.29688 -13.9844
C11.2969 -13.9844 13.2969 -11.3906 13.2969 -9.09375
C13.2969 -6.79688 11.4062 -6 9.90625 -6
C8.29688 -6 4.79688 -7.15625 4.79688 -11.8594
C4.79688 -16.7344 9.09375 -20.0938 14.7969 -20.0938
C24.7969 -20.0938 34.9062 -10.9375 37.7031 0.09375
L47.5 38.8281
C47.5938 39.3281 47.7969 39.9375 47.7969 40.5312
C47.7969 42.0156 46.5938 43.0156 45.0938 43.0156
C44.2031 43.0156 42.0938 42.6094 41.2969 39.6094
L33.9062 10.2812
C33.4062 8.48438 33.4062 8.28125 32.5938 7.1875
C30.5938 4.39062 27.2969 1 22.5 1
C16.9062 1 16.4062 6.48438 16.4062 9.1875
C16.4062 14.875 19.0938 22.5469 21.7969 29.7344
C22.9062 32.625 23.5 34.0312 23.5 36.0156
C23.5 40.2188 20.5 44 15.5938 44
C6.40625 44 2.70312 29.5312 2.70312 28.7344
C2.70312 28.3438 3.09375 27.8438 3.79688 27.8438
C4.70312 27.8438 4.79688 28.2344 5.20312 29.6406
C7.59375 38.0156 11.4062 42.0156 15.2969 42.0156
C16.2031 42.0156 17.9062 42.0156 17.9062 38.7188
C17.9062 36.125 16.7969 33.2344 15.2969 29.4375
C10.4062 16.3594 10.4062 13.0781 10.4062 10.6719
C10.4062 1.20312 17.2031 -1 22.2031 -1
C25.0938 -1 28.7031 -0.09375 32.2031 3.59375
L32.2969 3.5
C30.7969 -2.29688 29.7969 -6.125 26.2969 -10.9375" id="CMMI12-121"/>
     </defs>
     <g transform="translate(35.7684695575 220.280776312)rotate(-90.0)scale(0.18 -0.18)">
      <use transform="scale(0.9962640099626402)" xlink:href="#CMMI12-121"/>
     </g>
    </g>
   </g>
   <g id="patch_3">
    <path d="
M72 388.8
L518.4 388.8" style="fill:none;stroke:#000000;"/>
   </g>
   <g id="patch_4">
    <path d="
M72 388.8
L72 43.2" style="fill:none;stroke:#000000;"/>
   </g>
   <g id="patch_5">
    <path d="
M518.4 388.8
L518.4 43.2" style="fill:none;stroke:#000000;"/>
   </g>
   <g id="patch_6">
    <path d="
M72 43.2
L518.4 43.2" style="fill:none;stroke:#000000;"/>
   </g>
  </g>
 </g>
 <defs>
  <clipPath id="p7ff5b81e1d">
   <rect height="345.6" width="446.4" x="72.0" y="43.2"/>
  </clipPath>
 </defs>
</svg>
